<svg xmlns="http://www.w3.org/2000/svg" xmlns:xlink="http://www.w3.org/1999/xlink" width="500" zoomAndPan="magnify" viewBox="0 0 375 374.999991" height="500" preserveAspectRatio="xMidYMid meet" version="1.0"><defs><clipPath id="0407aa4913"><path d="M 26.46875 4 L 348.21875 4 L 348.21875 371 L 26.46875 371 Z M 26.46875 4 " clip-rule="nonzero"/></clipPath></defs><path fill="#000000" d="M 291.632812 127.175781 C 290.980469 125.980469 290.125 124.792969 288.339844 123.890625 L 262.863281 109.164062 C 262.511719 108.960938 262.136719 108.808594 261.734375 108.707031 C 261.609375 108.675781 261.484375 108.675781 261.34375 108.65625 C 261.082031 108.609375 260.816406 108.5625 260.550781 108.5625 L 260.503906 108.5625 L 260.503906 108.574219 C 259.75 108.585938 259.007812 108.789062 258.351562 109.164062 L 201.027344 142.296875 L 200.980469 142.195312 L 196.351562 144.875 C 190.773438 148.097656 183.910156 148.097656 178.332031 144.875 L 153.269531 130.398438 C 151.882812 129.589844 151.023438 128.101562 151.023438 126.488281 C 151.023438 124.878906 151.882812 123.386719 153.269531 122.582031 L 178.332031 108.109375 C 183.910156 104.886719 190.773438 104.886719 196.351562 108.109375 L 202.386719 111.597656 C 203.78125 112.398438 205.492188 112.398438 206.886719 111.597656 L 230.226562 98.113281 C 231.621094 97.308594 232.476562 95.820312 232.476562 94.207031 C 232.476562 92.597656 231.621094 91.105469 230.226562 90.300781 L 196.351562 70.722656 C 190.773438 67.503906 183.910156 67.503906 178.332031 70.722656 L 95.351562 118.679688 C 89.34375 122.152344 89.34375 130.824219 95.351562 134.296875 L 178.332031 182.253906 C 183.910156 185.472656 190.773438 185.472656 196.351562 182.253906 L 260.503906 145.179688 L 260.503906 229.628906 L 239.890625 241.582031 L 196.351562 266.816406 C 194.972656 267.609375 193.5 268.214844 191.96875 268.628906 C 187.367188 269.847656 182.464844 269.195312 178.332031 266.816406 L 118.679688 232.347656 C 115.890625 230.738281 114.175781 227.753906 114.175781 224.535156 L 114.175781 175.308594 C 114.175781 173.699219 113.3125 172.199219 111.925781 171.410156 L 88.59375 157.910156 C 87.199219 157.105469 85.480469 157.105469 84.085938 157.910156 C 82.691406 158.714844 81.835938 160.210938 81.835938 161.820312 L 81.835938 243.230469 C 81.835938 246.449219 83.550781 249.417969 86.339844 251.042969 L 178.332031 304.207031 C 181.03125 305.765625 184.097656 306.582031 187.214844 306.609375 L 187.277344 306.609375 C 187.71875 306.609375 188.160156 306.558594 188.597656 306.53125 C 188.9375 306.507812 189.277344 306.507812 189.617188 306.46875 C 190.082031 306.40625 190.546875 306.292969 191 306.207031 C 191.3125 306.128906 191.628906 306.09375 191.929688 306.015625 C 192.433594 305.890625 192.910156 305.703125 193.386719 305.527344 C 193.664062 305.425781 193.929688 305.363281 194.179688 305.261719 C 194.921875 304.960938 195.648438 304.609375 196.339844 304.207031 L 275.710938 258.339844 L 288.292969 251.191406 C 291.105469 249.59375 292.851562 246.601562 292.851562 243.355469 L 292.851562 131.691406 C 292.851562 130.082031 292.414062 128.53125 291.632812 127.175781 " fill-opacity="1" fill-rule="nonzero"/><g clip-path="url(#0407aa4913)"><path fill="#000000" d="M 196.128906 43.753906 C 193.449219 42.210938 190.433594 41.386719 187.34375 41.359375 C 184.261719 41.386719 181.234375 42.214844 178.558594 43.753906 L 67.707031 107.816406 C 62.148438 111.03125 58.722656 116.96875 58.722656 123.394531 L 58.722656 251.523438 C 58.722656 257.953125 62.144531 263.890625 67.707031 267.097656 L 178.558594 331.15625 C 181.269531 332.730469 184.339844 333.558594 187.46875 333.570312 C 190.597656 333.558594 193.675781 332.730469 196.390625 331.167969 L 306.753906 267.386719 C 312.308594 264.179688 315.742188 258.242188 315.742188 251.8125 L 315.742188 214.789062 C 315.726562 213.179688 316.59375 211.695312 317.976562 210.890625 L 341.480469 197.316406 C 342.863281 196.511719 344.585938 196.511719 345.96875 197.316406 C 347.363281 198.121094 348.21875 199.605469 348.21875 201.214844 L 348.21875 270.167969 C 348.203125 273.109375 347.476562 276.003906 346.09375 278.597656 C 345.742188 280.292969 343.894531 282.292969 341.277344 284.34375 C 341.230469 284.394531 341.152344 284.445312 341.089844 284.496094 C 334.453125 289.667969 323.46875 295 321.523438 296.132812 L 196.390625 368.445312 C 193.589844 370.054688 190.394531 370.886719 187.164062 370.847656 L 187.027344 370.847656 L 187.027344 370.835938 C 184.050781 370.757812 181.132812 369.929688 178.558594 368.445312 L 35.453125 285.742188 C 29.894531 282.535156 26.46875 276.597656 26.46875 270.167969 L 26.46875 104.761719 C 26.46875 101.875 26.832031 98.933594 28.097656 96.441406 C 28.273438 95.796875 30.007812 92.621094 33.578125 90.003906 C 34.925781 89.097656 37.308594 87.875 39.539062 86.585938 L 178.15625 6.480469 C 180.945312 4.871094 184.125 4.042969 187.34375 4.082031 C 190.574219 4.042969 193.742188 4.871094 196.53125 6.480469 L 324.4375 80.390625 C 324.726562 80.566406 324.953125 80.78125 325.207031 80.984375 L 326.828125 81.914062 C 331.175781 84.222656 337.988281 87.738281 341.683594 90.546875 L 341.984375 90.773438 C 342.035156 90.8125 342.085938 90.847656 342.136719 90.882812 C 342.261719 90.992188 342.347656 91.097656 342.472656 91.210938 C 343.832031 92.347656 344.988281 93.683594 345.878906 95.175781 C 345.90625 95.195312 345.917969 95.21875 345.945312 95.246094 L 345.929688 95.25 C 347.425781 97.746094 348.21875 100.601562 348.21875 103.511719 L 348.21875 164.078125 C 348.21875 165.6875 347.363281 167.171875 345.96875 167.976562 L 322.464844 181.5625 C 321.082031 182.355469 319.359375 182.355469 317.980469 181.5625 C 316.582031 180.757812 315.730469 179.273438 315.730469 177.664062 L 315.730469 123.046875 C 315.730469 116.613281 312.296875 110.667969 306.730469 107.457031 L 196.128906 43.753906 L 196.128906 43.757812 Z M 196.128906 43.753906 " fill-opacity="1" fill-rule="nonzero"/></g></svg>